<?xml version="1.0" encoding="utf-8"?><svg viewBox="0 0 21 19" xmlns="http://www.w3.org/2000/svg" xmlns:xlink="http://www.w3.org/1999/xlink"><style>:root>svg{display:none}:root>svg:target{display:block}</style><svg fill="none" viewBox="0 0 19 18" id="alarm" xmlns="http://www.w3.org/2000/svg"><path d="M8.166 5h2v4h3v2h-5V5z" fill="#fff"/><path fill-rule="evenodd" clip-rule="evenodd" d="M.166 9a9 9 0 1118 0 9 9 0 01-18 0zm2 0a7 7 0 1114 0 7 7 0 01-14 0z" fill="#fff"/></svg><svg fill="none" viewBox="0 0 16 16" id="alarm-blue" xmlns="http://www.w3.org/2000/svg"><path d="M7.111 4.444H8.89V8h2.667v1.778H7.11V4.444z" fill="#0061A3"/><path fill-rule="evenodd" clip-rule="evenodd" d="M0 8a8 8 0 1116 0A8 8 0 010 8zm1.778 0a6.222 6.222 0 1112.444 0A6.222 6.222 0 011.778 8z" fill="#0061A3"/></svg><svg fill="none" viewBox="0 0 21 19" id="country-dem" xmlns="http://www.w3.org/2000/svg"><g clip-path="url(#cclip0_4005_1157)"><path d="M.751 11.553v2.404c0 .997.871 1.701 1.936 1.701h16.129c1.065 0 1.936-.704 1.936-1.7v-2.405h-20z" fill="#F8D12E"/><path d="M18.816 3.342H2.686c-1.064 0-1.935.704-1.935 1.7v2.405h20V5.043c0-.997-.87-1.701-1.935-1.701z" fill="#333"/><path d="M20.752 7.447h-20v4.106h20V7.447z" fill="#DB2727"/><path d="M18.752 15.658c1.064 0 2-.704 2-1.7v-2.405h-7.29l5.29 4.105z" fill="#DBB30F"/><path d="M18.816 3.342H2.687l5.355 4.105h12.71V5.043c0-.997-.871-1.701-1.936-1.701z" fill="#000"/><path d="M13.493 11.553h7.258V7.447H8.01l5.483 4.106z" fill="#C10E0E"/><path d="M18.816 3.342H2.687l14.935 4.105h3.13V5.043c0-.997-.871-1.701-1.936-1.701z" fill="#000"/><path d="M20.752 8.268v-.82h-3.29l3.29.82z" fill="#A00808"/><path d="M20.752 13.928c0 1.085-.871 1.73-1.936 1.73H2.686c-1.064 0-1.935-.762-1.935-1.76" fill="#D89F12"/></g><defs><clipPath id="cclip0_4005_1157"><path fill="#fff" transform="translate(.751 .41)" d="M0 0h20v18.182H0z"/></clipPath></defs></svg><svg fill="none" viewBox="0 0 20 14" id="country-eng" xmlns="http://www.w3.org/2000/svg"><g clip-path="url(#dclip0_3759_1441)"><path d="M.001.049h23.002v14H.002v-14z" fill="#fff"/><path d="M.001.049h23.002v.946H.002V.05zm0 1.892h23.002v.947H.002V1.94zm0 1.893h23.002v.946H.002v-.946zm0 1.892h23.002v.946H.002v-.946zm0 1.893h23.002v.946H.002v-.946zm0 1.892h23.002v.946H.002v-.946zm0 1.893h23.002v.946H.002v-.946zM.033 13.128h23.002v.947H.033v-.947zm0 1.893h23.002v.946H.033v-.946zm0 1.892h23.002v.947H.033v-.947zm0 1.893h23.002v.946H.033v-.946zm0 1.892h23.002v.947H.033v-.947zm0 1.893h23.002v.946H.033v-.946zm0 1.892h23.002v.946H.033v-.946z" fill="#B22234"/><path d="M.001.049h9.201v6.623h-9.2V.05z" fill="#3C3B6E"/><path d="M.434.586l.219.162-.084.262.22-.162.218.162L.924.748l.219-.162H.872L.788.325.704.586h-.27zm1.525 0l.22.162-.085.262.22-.162.219.162-.084-.262.22-.162h-.272L2.314.325 2.23.586h-.271zm1.525 0l.22.162-.084.262.219-.162.22.162-.085-.262.22-.162h-.271L3.839.325l-.084.261h-.27zm1.526 0l.219.162-.084.262.22-.162.219.162L5.5.748l.22-.162h-.272L5.364.325l-.083.261H5.01zm1.525 0l.22.162-.084.262.219-.162.219.162-.084-.262.22-.162h-.271L6.89.325l-.084.261h-.27zm1.526 0l.219.162-.084.262.22-.162.218.162-.083-.262.219-.162h-.271L8.415.325l-.083.261H8.06zm-6.865.665l.22.162-.084.261.219-.161.22.161-.085-.261.22-.162h-.271L1.55.989l-.084.262h-.27zm1.526 0l.219.162-.084.261.22-.161.219.161-.084-.261.219-.162H3.16L3.076.989l-.083.262h-.271zm1.525 0l.22.162-.084.261.219-.161.219.161-.084-.261.22-.162h-.272L4.602.989l-.084.262h-.27zm1.526 0l.219.162-.084.261.22-.161.218.161-.083-.261.219-.162H6.21L6.127.989l-.084.262h-.27zm1.525 0l.22.162-.085.261.22-.161.219.161-.084-.261.22-.162h-.272L7.652.989l-.083.262h-.271zm-6.864.664l.219.162-.084.262.22-.162.218.162-.083-.262.219-.162H.872l-.084-.262-.084.262h-.27zm1.525 0l.22.162-.085.262.22-.162.219.162-.084-.262.22-.162h-.272l-.083-.262-.084.262h-.271zm1.525 0l.22.162-.084.262.219-.162.22.162-.085-.262.22-.162h-.271l-.084-.262-.084.262h-.27zm1.526 0l.219.162-.084.262.22-.162.219.162-.084-.262.22-.162h-.272l-.084-.262-.083.262H5.01zm1.525 0l.22.162-.084.262.219-.162.219.162-.084-.262.22-.162h-.271l-.084-.262-.084.262h-.27zm1.526 0l.219.162-.084.262.22-.162.218.162-.083-.262.219-.162h-.271l-.084-.262-.083.262H8.06zm-6.846.666l.22.162-.084.262.219-.162.219.162-.084-.262.22-.162h-.272L1.57 2.32l-.084.261h-.27zm1.526 0l.219.162-.084.262.22-.162.218.162-.083-.262.219-.162h-.271l-.084-.261-.084.261h-.27zm1.525 0l.22.162-.085.262.22-.162.219.162-.084-.262.22-.162h-.272l-.083-.261-.084.261h-.271zm1.525 0l.22.162-.084.262.219-.162.22.162-.085-.262.22-.162H6.23l-.084-.261-.084.261h-.27zm1.526 0l.219.162-.084.262.22-.162.218.162-.083-.262.219-.162h-.27L7.67 2.32l-.083.261h-.271zm-6.86.66l.219.16-.084.263.22-.162.219.162-.084-.262.219-.162h-.27L.81 2.978l-.083.262H.457zm1.525 0l.22.16-.084.263.219-.162.219.162-.084-.262.22-.162H2.42l-.084-.262-.084.262h-.27zm1.526 0l.219.16-.084.263.22-.162.218.162-.083-.262.219-.162h-.271l-.084-.262-.084.262h-.27zm1.525 0l.22.16-.085.263.22-.162.219.162-.084-.262.22-.162H5.47l-.083-.262-.084.262h-.271zm1.525 0l.22.16-.084.263.219-.162.22.162-.085-.262.22-.162h-.271l-.084-.262-.084.262h-.27zm1.526 0l.219.16-.084.263.22-.162.219.162-.084-.262.219-.162h-.27l-.085-.262-.083.262h-.271zM.47 4.547l.22.161-.085.262.22-.162.219.162L.96 4.71l.22-.161H.908l-.083-.262-.084.262h-.27zm1.525 0l.22.161-.084.262.219-.162.22.162-.084-.262.219-.161h-.271l-.084-.262-.084.262h-.27zm1.526 0l.219.161-.084.262.22-.162.219.162-.084-.262.22-.161H3.96l-.084-.262-.083.262h-.271zm1.525 0l.22.161-.084.262.219-.162.219.162-.084-.262.22-.161h-.271l-.084-.262-.084.262h-.27zm1.526 0l.219.161-.084.262.22-.162.218.162-.083-.262.219-.161H7.01l-.084-.262-.083.262h-.271zm1.525 0l.22.161-.084.262.219-.162.219.162-.084-.262.22-.161h-.272l-.083-.262-.084.262h-.271zM.452 5.87l.22.162-.084.262.22-.162.218.162-.084-.262.22-.162H.89L.807 5.61l-.084.261h-.27zm1.526 0l.219.162-.084.262.22-.162.219.162-.084-.262.219-.162h-.27l-.085-.261-.083.261h-.271zm1.525 0l.22.162-.084.262.219-.162.219.162-.084-.262.22-.162h-.271l-.084-.261-.084.261h-.27zm1.526 0l.219.162-.084.262.22-.162.218.162-.083-.262.219-.162h-.271l-.084-.261-.083.261h-.271zm1.525 0l.22.162-.085.262.22-.162.219.162-.084-.262.22-.162h-.272L6.91 5.61l-.084.261h-.271zm1.525 0l.22.162-.084.262.219-.162.22.162-.085-.262.22-.162h-.271l-.084-.261-.084.261h-.27zM1.22 3.887l.22.162-.084.262.22-.162.218.162-.083-.262.219-.162h-.271l-.084-.261-.083.261H1.22zm1.526 0l.22.162-.085.262.22-.162.219.162-.084-.262.22-.162h-.272L3.1 3.626l-.084.261h-.27zm1.525 0l.22.162-.084.262.22-.162.218.162-.083-.262.219-.162h-.271l-.084-.261-.084.261h-.27zm1.526 0l.219.162-.084.262.22-.162.219.162-.084-.262.22-.162h-.272l-.084-.261-.083.261h-.271zm1.525 0l.22.162-.084.262.219-.162.219.162-.084-.262.22-.162H7.76l-.084-.261-.084.261h-.27zM1.215 5.208l.22.162-.084.262.219-.162.219.162-.084-.262.22-.162h-.272l-.083-.262-.084.262h-.27zm1.526 0l.219.162-.084.262.22-.162.218.162-.083-.262.219-.162h-.271l-.084-.262-.084.262h-.27zm1.525 0l.22.162-.085.262.22-.162.219.162-.084-.262.22-.162h-.272l-.083-.262-.084.262h-.271zm1.525 0l.22.162-.084.262.219-.162.22.162-.085-.262.22-.162H6.23l-.084-.262-.084.262h-.27zm1.526 0l.219.162-.084.262.22-.162.218.162-.083-.262.219-.162h-.27l-.085-.262-.083.262h-.271z" fill="#fff"/></g><defs><clipPath id="dclip0_3759_1441"><path d="M0 2a2 2 0 012-2h16a2 2 0 012 2v10a2 2 0 01-2 2H2a2 2 0 01-2-2V2z" fill="#fff"/></clipPath></defs></svg><svg fill="none" viewBox="0 0 16 16" id="facebook" xmlns="http://www.w3.org/2000/svg"><circle cx="8" cy="8" r="8" fill="#1877F2"/><path d="M7.133 12.615V8.433H5.747V6.799h1.386V5.582c0-1.391.867-2.167 2.085-2.167.606 0 1.126.043 1.26.043v1.474h-.866c-.693 0-.823.303-.823.78v1.04h1.607l-.23 1.65H8.79v4.17H7.133v.043z" fill="#FAFBFC"/></svg><svg fill="none" viewBox="0 0 16 16" id="facebook-messenger" xmlns="http://www.w3.org/2000/svg"><circle cx="8" cy="8" fill="#1877F2" r="8"/><path d="M8 2.8c-2.856 0-5.2 2.17-5.2 4.856 0 1.432.68 2.704 1.733 3.59V13.2l1.924-.937c.488.144 1 .251 1.543.251 2.856 0 5.2-2.17 5.2-4.857C13.2 4.97 10.856 2.8 8 2.8zm0 .844c2.409 0 4.333 1.802 4.333 4.012 0 2.21-1.924 4.012-4.333 4.012a4.647 4.647 0 01-1.476-.25l-.176-.053-.948.462v-.95l-.162-.133c-.962-.738-1.571-1.845-1.571-3.088 0-2.21 1.924-4.012 4.333-4.012zm-.487 2.68L4.899 9.016l2.343-1.267 1.246 1.307 2.586-2.733-2.289 1.254-1.272-1.253z" fill="#fff"/></svg><svg fill="none" viewBox="0 0 20 15" id="menu" xmlns="http://www.w3.org/2000/svg"><path d="M0 1a1 1 0 011-1h18a1 1 0 110 2H1a1 1 0 01-1-1zM0 7.032a1 1 0 011-1h18a1 1 0 110 2H1a1 1 0 01-1-1zM1 12.065a1 1 0 100 2h18a1 1 0 000-2H1z" fill="#F30000"/></svg><svg fill="none" viewBox="0 0 18 18" id="profile" xmlns="http://www.w3.org/2000/svg"><path d="M9 8.186c2.003 0 3.627-1.549 3.627-3.46 0-1.91-1.624-3.459-3.627-3.459-2.003 0-3.626 1.549-3.626 3.46 0 1.91 1.623 3.46 3.626 3.46zM9 9c-3.534 0-6.4 2.734-6.4 6.106 0 .899.764 1.628 1.707 1.628h9.387c.942 0 1.706-.73 1.706-1.628C15.4 11.734 12.535 9 9 9z" fill="#fff"/></svg><svg fill="none" viewBox="0 0 16 16" id="star" xmlns="http://www.w3.org/2000/svg"><path fill-rule="evenodd" clip-rule="evenodd" d="M15.534 6.738l-4.175 3.185 1.51 4.89s.872 2.055-.905.728a235.41 235.41 0 01-3.954-3.053l-4.052 3.117c-1.623 1.247-.793-.855-.793-.855l1.501-4.833-4.078-3.11S-.89 5.758.841 5.758l5.107.001L7.575.455S7.702 0 8.022 0c.34 0 .454.488.454.488l1.608 5.275s3.083-.005 5.077-.005c1.638 0 .373.98.373.98z" fill="#F7D300"/></svg><svg fill="none" viewBox="0 0 16 16" id="twitter" xmlns="http://www.w3.org/2000/svg"><circle cx="8" cy="8" r="8" fill="#1DA1F3"/><path d="M11.398 6.501v.217c0 2.243-1.712 4.832-4.832 4.832a4.878 4.878 0 01-2.61-.759 3.438 3.438 0 002.513-.704 1.681 1.681 0 01-1.582-1.18 1.574 1.574 0 00.77-.033A1.686 1.686 0 014.29 7.216v-.021c.228.13.488.206.77.216a1.701 1.701 0 01-.759-1.419c0-.314.087-.606.228-.856a4.832 4.832 0 003.499 1.777 1.538 1.538 0 01-.043-.39c0-.942.758-1.7 1.7-1.7.488 0 .932.205 1.235.53a3.45 3.45 0 001.084-.412c-.13.401-.401.726-.748.943.347-.043.672-.13.975-.27-.216.346-.498.65-.834.887z" fill="#FAFBFC"/></svg><svg fill="none" viewBox="0 0 16 16" id="whatsapp" xmlns="http://www.w3.org/2000/svg"><circle cx="8" cy="8" r="8" fill="#25D366"/><path d="M10.167 8.953c-.13-.043-.694-.347-.824-.39-.13-.043-.173-.043-.26.043-.119.168-.25.327-.39.477-.086.087-.13.087-.26.043a2.357 2.357 0 01-.953-.606 2.687 2.687 0 01-.65-.824c-.087-.13 0-.173.043-.26a.95.95 0 00.174-.216c.043-.087.086-.13.13-.217.043-.087 0-.13 0-.217 0-.086-.26-.65-.39-.866-.13-.217-.174-.217-.26-.217H6.31a.468.468 0 00-.303.13 1.252 1.252 0 00-.434.997c.04.443.205.865.477 1.217a4.732 4.732 0 002.041 1.781c.303.13.52.174.693.26.238.077.492.092.737.044a1.5 1.5 0 00.823-.564c.055-.182.084-.372.087-.563a.762.762 0 01-.26-.043l-.004-.009zM8 11.9a3.813 3.813 0 01-2.04-.564l-.13-.086-1.522.39.394-1.474-.086-.13a4.043 4.043 0 01-.607-2.127A3.995 3.995 0 118 11.899zm3.384-7.332A4.953 4.953 0 008 3.18a4.767 4.767 0 00-4.767 4.767c0 .84.225 1.664.65 2.387l-.702 2.483 2.561-.65a4.632 4.632 0 002.301.564 4.768 4.768 0 004.767-4.767 4.996 4.996 0 00-1.434-3.384" fill="#FAFBFC"/></svg></svg>